# xmcd
#
# Track frame offsets: 
#        150
#        12542
#        24019
#        36549
#        49182
#        62882
#        76954
#        94374
#        107987
#        122987
#        132924
#        147737
#        161447
#        174604
#        189207
#        204034
#
# Disc length: 2894 seconds
#
# Revision: 1
# Processed by: cddbd v1.5.2PL0 Copyright (c) Steve Scherf et al.
# Submitted via: ExactAudioCopy v1.0b3
#
DISCID=e10b4c10
DTITLE=Truck Stop - Weihnachten im Wilden Westen
DYEAR=2002
DGENRE=Country
TTITLE0=Wir wuenschen euch ein frohes Fest
TTITLE1=Erwin, der dicke Schneemann (Rudolph the Rednosed Reindeer)
TTITLE2=Stille Nacht
TTITLE3=Jingle Bells (Schlittenfahrt im Schnee)
TTITLE4=Ich wuensche mir zum Weihnachtsfest
TTITLE5=Papi, nur eines wuensch ich mir
TTITLE6=Big Old Joe, der Weihnachtsbaer
TTITLE7=Der Weihnachtsmann sah aus wie Papa
TTITLE8=Weihnachtstraum Montana
TTITLE9=Der Weihnachtsmann kommt heute in die Stadt
TTITLE10=Soehnchen mein Soehnchen
TTITLE11=Weisse Weihnacht im Wilden Westen
TTITLE12=Ich schenk dir einen Schneemann
TTITLE13=Kommt der Weihnachtsmann nach Texas
TTITLE14=Genau zur Weihnachtszeit
TTITLE15=Weihnacht an der Waterkant
EXTD=YEAR: 2002
EXTT0=
EXTT1=
EXTT2=
EXTT3=
EXTT4=
EXTT5=
EXTT6=
EXTT7=
EXTT8=
EXTT9=
EXTT10=
EXTT11=
EXTT12=
EXTT13=
EXTT14=
EXTT15=
PLAYORDER=
